<?xml version="1.0" encoding="UTF-8" standalone="no"?>
<svg
   version="1.1"
   x="0px"
   y="0px"
   viewBox="0 0 86.290496 52.22525"
   enable-background="new 0 0 100 100"
   xml:space="preserve"
   id="svg5"
   sodipodi:docname="noun-filament-spool-3981473.svg"
   width="86.290497"
   height="52.22525"
   inkscape:version="1.4.2 (f4327f4, 2025-05-13)"
   xmlns:inkscape="http://www.inkscape.org/namespaces/inkscape"
   xmlns:sodipodi="http://sodipodi.sourceforge.net/DTD/sodipodi-0.dtd"
   xmlns="http://www.w3.org/2000/svg"
   xmlns:svg="http://www.w3.org/2000/svg"><defs
     id="defs5" /><sodipodi:namedview
     id="namedview5"
     pagecolor="#ffffff"
     bordercolor="#cccccc"
     borderopacity="1"
     inkscape:showpageshadow="0"
     inkscape:pageopacity="1"
     inkscape:pagecheckerboard="0"
     inkscape:deskcolor="#d1d1d1"
     inkscape:zoom="8.104"
     inkscape:cx="41.707799"
     inkscape:cy="25.234452"
     inkscape:window-width="2240"
     inkscape:window-height="1294"
     inkscape:window-x="-11"
     inkscape:window-y="-11"
     inkscape:window-maximized="1"
     inkscape:current-layer="svg5" /><g
     id="g4"
     transform="matrix(0,1.0418479,-0.96681867,0,91.84874,-26.357684)"><path
       d="m 39.67,95 c -0.482,0 -0.964,0 -1.447,0 -0.673,-0.309 -1.435,-0.504 -2.001,-0.949 -1.841,-1.445 -3.543,-3.025 -4.637,-5.17 -1.644,-3.222 -2.674,-6.648 -3.482,-10.149 -1.723,-7.47 -2.476,-15.066 -2.71,-22.708 -0.311,-10.182 0.101,-20.331 1.969,-30.377 0.794,-4.268 1.777,-8.488 3.601,-12.454 1.551,-3.373 3.752,-6.141 7.405,-7.444 0.386,0 0.771,0 1.157,0 2.398,0.622 3.859,2.332 4.994,4.377 0.594,1.07 1.085,2.199 1.603,3.311 0.284,0.61 1.418,1.097 2.012,0.809 1.025,-0.497 2.03,-0.458 3.066,-0.013 0.26,0.112 0.65,0.112 0.909,-0.001 1.012,-0.441 2,-0.474 3.005,-0.017 0.868,0.395 1.632,0.102 2.065,-0.768 0.699,-1.407 1.454,-2.779 2.676,-3.817 1.341,-1.139 2.694,-1.165 3.928,0.083 0.786,0.794 1.483,1.718 2.042,2.686 1.48,2.561 2.337,5.375 3.068,8.223 1.537,5.99 2.329,12.094 2.788,18.25 0.509,6.831 0.552,13.665 0.167,20.502 -0.385,6.838 -1.166,13.625 -2.825,20.285 -0.775,3.111 -1.673,6.196 -3.343,8.96 -0.634,1.049 -1.491,2.011 -2.412,2.827 -0.908,0.805 -2.001,0.714 -3.003,0.011 -0.39,-0.274 -0.797,-0.581 -1.062,-0.966 -0.722,-1.046 -1.405,-2.122 -2.041,-3.223 -0.434,-0.752 -1.221,-1.096 -1.981,-0.737 -1.022,0.482 -2.03,0.477 -3.067,0.008 -0.256,-0.116 -0.652,-0.116 -0.909,-0.002 -1.063,0.473 -2.087,0.472 -3.139,-0.021 -0.198,-0.093 -0.478,-0.054 -0.713,-0.022 -0.914,0.122 -1.295,0.775 -1.541,1.57 -0.092,0.297 -0.237,0.579 -0.376,0.859 -1.301,2.614 -2.695,5.142 -5.766,6.077 z m 7.401,-44.552 c 0,-0.987 0.009,-1.975 -10e-4,-2.962 C 47,40.659 46.449,33.871 45.296,27.14 44.535,22.697 43.55,18.306 41.701,14.162 41.032,12.663 40.285,11.202 39.069,10.052 37.724,8.78 36.406,8.74 35.163,10.098 c -0.819,0.894 -1.549,1.918 -2.105,2.994 -1.988,3.844 -2.99,8.016 -3.79,12.231 -1.8,9.482 -2.32,19.064 -2.112,28.697 0.15,6.921 0.706,13.803 1.955,20.618 0.778,4.245 1.721,8.457 3.621,12.363 0.643,1.323 1.495,2.589 2.461,3.699 1.17,1.344 2.52,1.356 3.773,0.084 0.831,-0.844 1.55,-1.855 2.105,-2.904 1.991,-3.76 2.987,-7.858 3.805,-11.996 1.661,-8.397 2.21,-16.894 2.195,-25.436 z m 9.99,34.554 c 0.106,0.072 0.159,0.127 0.222,0.148 1.074,0.355 1.814,-0.229 2.463,-0.941 1.172,-1.286 1.887,-2.845 2.484,-4.452 2.219,-5.972 3.065,-12.219 3.608,-18.515 0.466,-5.405 0.56,-10.822 0.334,-16.246 -0.265,-6.341 -0.899,-12.634 -2.363,-18.82 -0.672,-2.839 -1.494,-5.643 -3.026,-8.156 -0.489,-0.803 -1.188,-1.503 -1.887,-2.144 -0.498,-0.456 -1.169,-0.502 -1.689,-0.198 0.774,1.562 1.654,3.038 2.262,4.618 2.329,6.061 3.19,12.433 3.755,18.849 0.498,5.645 0.584,11.302 0.343,16.966 -0.259,6.075 -0.842,12.11 -2.207,18.044 -0.877,3.81 -1.899,7.576 -4.299,10.847 z M 53.073,15.637 c 0.006,0.092 -0.008,0.151 0.015,0.181 1.981,2.636 2.984,5.699 3.796,8.829 2.102,8.097 2.725,16.373 2.809,24.699 0.067,6.656 -0.28,13.295 -1.382,19.868 -0.932,5.558 -1.967,11.103 -5.274,15.895 0.639,0.343 1.276,0.174 1.727,-0.262 0.7,-0.677 1.39,-1.412 1.892,-2.24 1.321,-2.179 2.059,-4.604 2.689,-7.057 1.927,-7.511 2.563,-15.183 2.707,-22.9 C 62.19,45.245 61.766,37.868 60.494,30.558 59.849,26.853 59.02,23.194 57.475,19.74 56.893,18.439 56.244,17.172 55.154,16.204 54.559,15.678 53.901,15.334 53.073,15.637 Z m -5.745,0.582 c 3.103,11.214 4.015,22.634 4.014,34.145 -10e-4,11.536 -0.901,22.983 -4.116,34.161 0.289,-0.233 0.589,-0.459 0.755,-0.759 0.728,-1.323 1.559,-2.614 2.094,-4.015 2.24,-5.857 3.053,-12.017 3.609,-18.212 0.508,-5.668 0.586,-11.349 0.333,-17.035 -0.293,-6.58 -0.979,-13.108 -2.641,-19.499 -0.68,-2.613 -1.521,-5.174 -3.012,-7.463 -0.305,-0.468 -0.689,-0.884 -1.036,-1.323 z m 1.721,-0.56 c 1.745,2.276 2.725,4.851 3.502,7.513 2.107,7.218 2.866,14.638 3.131,22.11 0.293,8.271 -0.018,16.523 -1.408,24.703 -0.698,4.111 -1.582,8.18 -3.343,11.992 -0.506,1.096 -1.184,2.112 -1.787,3.173 0.616,0.284 1.218,0.1 1.658,-0.317 0.64,-0.605 1.341,-1.241 1.717,-2.009 0.874,-1.785 1.731,-3.609 2.308,-5.504 2.02,-6.631 2.747,-13.477 3.074,-20.37 0.448,-9.461 0.066,-18.876 -1.743,-28.197 -0.671,-3.455 -1.501,-6.88 -3.189,-10.001 -0.559,-1.034 -1.391,-1.939 -2.192,-2.817 -0.404,-0.442 -1.039,-0.547 -1.728,-0.276 z"
       id="path1" /><path
       d="m 63.537,5.751 c 3.06,0.77 4.523,3.175 5.782,5.737 1.785,3.633 2.791,7.526 3.604,11.467 1.409,6.832 2.081,13.751 2.361,20.715 0.259,6.433 0.175,12.86 -0.335,19.276 -0.606,7.621 -1.588,15.187 -4.076,22.462 -0.657,1.923 -1.544,3.785 -2.502,5.582 -1.018,1.91 -2.482,3.428 -4.69,4.011 -0.482,0 -0.964,0 -1.447,0 -3.208,-0.994 -4.571,-3.681 -5.857,-6.432 0.503,0.755 0.971,1.536 1.518,2.257 0.813,1.074 1.782,1.99 3.159,2.267 1.442,0.29 2.646,-0.243 3.681,-1.229 1.739,-1.658 2.724,-3.776 3.579,-5.958 1.775,-4.531 2.745,-9.268 3.469,-14.06 0.969,-6.418 1.402,-12.875 1.478,-19.365 C 73.377,42.457 72.755,32.501 70.62,22.682 69.795,18.888 68.786,15.135 66.826,11.743 66.163,10.595 65.313,9.484 64.324,8.611 62.63,7.115 60.536,7.256 58.93,8.854 c -0.862,0.858 -1.568,1.873 -2.424,2.913 1.377,-2.682 2.781,-5.157 5.873,-6.017 0.387,0.001 0.772,0.001 1.158,0.001 z"
       id="path2" /><path
       d="m 39.555,49.707 c -0.084,3.939 -0.217,7.188 -1.173,10.331 -0.25,0.823 -0.622,1.614 -1.002,2.39 -0.145,0.296 -0.466,0.505 -0.706,0.754 -0.233,-0.261 -0.53,-0.487 -0.689,-0.787 -0.831,-1.566 -1.338,-3.242 -1.592,-4.994 -0.76,-5.262 -0.794,-10.514 0.367,-15.724 0.243,-1.091 0.728,-2.134 1.167,-3.172 0.147,-0.349 0.497,-0.612 0.754,-0.915 0.272,0.317 0.612,0.597 0.804,0.956 1.05,1.964 1.494,4.11 1.719,6.296 0.19,1.841 0.27,3.695 0.351,4.865 z"
       id="path3" /><path
       d="m 37.458,64.288 c -1.305,1.361 -2.827,1.337 -3.908,0.062 -0.963,-1.137 -1.364,-2.535 -1.686,-3.948 -0.971,-4.261 -1.135,-8.584 -0.921,-12.931 0.145,-2.941 0.422,-5.87 1.389,-8.671 0.3,-0.87 0.747,-1.741 1.323,-2.453 1.022,-1.263 2.752,-1.161 3.714,0.095 -1.264,-0.145 -1.929,0.077 -2.391,1.307 -0.63,1.677 -1.2,3.419 -1.463,5.182 -0.81,5.443 -0.793,10.905 0.244,16.326 0.246,1.287 0.7,2.55 1.2,3.767 0.396,0.964 1.133,1.621 2.499,1.264 z"
       id="path4" /></g></svg>
